<svg id="visual" viewBox="0 0 900 600" width="900" height="600" xmlns="http://www.w3.org/2000/svg" xmlns:xlink="http://www.w3.org/1999/xlink" version="1.1"><rect x="0" y="0" width="900" height="600" fill="#001220"></rect><defs><linearGradient id="grad1_0" x1="33.3%" y1="100%" x2="100%" y2="0%"><stop offset="20%" stop-color="#001220" stop-opacity="1"></stop><stop offset="80%" stop-color="#001220" stop-opacity="1"></stop></linearGradient></defs><defs><linearGradient id="grad2_0" x1="0%" y1="100%" x2="66.7%" y2="0%"><stop offset="20%" stop-color="#001220" stop-opacity="1"></stop><stop offset="80%" stop-color="#001220" stop-opacity="1"></stop></linearGradient></defs><g transform="translate(900, 600)"><path d="M-216.3 0C-207.6 -35.8 -198.8 -71.7 -181.9 -105C-164.9 -138.3 -139.8 -169.2 -108.2 -187.3C-76.5 -205.5 -38.2 -210.9 0 -216.3L0 0Z" fill="#3c31b4"></path></g><g transform="translate(0, 0)"><path d="M216.3 0C190 25.7 163.7 51.4 149 86C134.2 120.6 131.1 164.1 108.2 187.3C85.3 210.6 42.6 213.4 0 216.3L0 0Z" fill="#3c31b4"></path></g></svg>