<svg id="visual" viewBox="0 0 900 600" width="900" height="600" xmlns="http://www.w3.org/2000/svg" xmlns:xlink="http://www.w3.org/1999/xlink" version="1.1"><rect x="0" y="0" width="900" height="600" fill="#001220"></rect><defs><linearGradient id="grad1_0" x1="33.3%" y1="0%" x2="100%" y2="100%"><stop offset="20%" stop-color="#742ff6" stop-opacity="1"></stop><stop offset="80%" stop-color="#742ff6" stop-opacity="1"></stop></linearGradient></defs><defs><linearGradient id="grad1_1" x1="33.3%" y1="0%" x2="100%" y2="100%"><stop offset="20%" stop-color="#742ff6" stop-opacity="1"></stop><stop offset="80%" stop-color="#003dca" stop-opacity="1"></stop></linearGradient></defs><defs><linearGradient id="grad1_2" x1="33.3%" y1="0%" x2="100%" y2="100%"><stop offset="20%" stop-color="#003693" stop-opacity="1"></stop><stop offset="80%" stop-color="#003dca" stop-opacity="1"></stop></linearGradient></defs><defs><linearGradient id="grad1_3" x1="33.3%" y1="0%" x2="100%" y2="100%"><stop offset="20%" stop-color="#003693" stop-opacity="1"></stop><stop offset="80%" stop-color="#002658" stop-opacity="1"></stop></linearGradient></defs><defs><linearGradient id="grad1_4" x1="33.3%" y1="0%" x2="100%" y2="100%"><stop offset="20%" stop-color="#001220" stop-opacity="1"></stop><stop offset="80%" stop-color="#002658" stop-opacity="1"></stop></linearGradient></defs><defs><linearGradient id="grad2_0" x1="0%" y1="0%" x2="66.7%" y2="100%"><stop offset="20%" stop-color="#742ff6" stop-opacity="1"></stop><stop offset="80%" stop-color="#742ff6" stop-opacity="1"></stop></linearGradient></defs><defs><linearGradient id="grad2_1" x1="0%" y1="0%" x2="66.7%" y2="100%"><stop offset="20%" stop-color="#003dca" stop-opacity="1"></stop><stop offset="80%" stop-color="#742ff6" stop-opacity="1"></stop></linearGradient></defs><defs><linearGradient id="grad2_2" x1="0%" y1="0%" x2="66.7%" y2="100%"><stop offset="20%" stop-color="#003dca" stop-opacity="1"></stop><stop offset="80%" stop-color="#003693" stop-opacity="1"></stop></linearGradient></defs><defs><linearGradient id="grad2_3" x1="0%" y1="0%" x2="66.7%" y2="100%"><stop offset="20%" stop-color="#002658" stop-opacity="1"></stop><stop offset="80%" stop-color="#003693" stop-opacity="1"></stop></linearGradient></defs><defs><linearGradient id="grad2_4" x1="0%" y1="0%" x2="66.7%" y2="100%"><stop offset="20%" stop-color="#002658" stop-opacity="1"></stop><stop offset="80%" stop-color="#001220" stop-opacity="1"></stop></linearGradient></defs><g transform="translate(900, 0)"><path d="M0 486.7C-94.4 479.4 -188.9 472 -243.4 421.5C-297.9 371.1 -312.5 277.4 -346.4 200C-380.3 122.6 -433.5 61.3 -486.7 0L0 0Z" fill="#001d3b"></path><path d="M0 389.4C-75.5 383.5 -151.1 377.6 -194.7 337.2C-238.3 296.8 -250 222 -277.1 160C-304.3 98 -346.8 49 -389.4 0L0 0Z" fill="#002f75"></path><path d="M0 292C-56.7 287.6 -113.3 283.2 -146 252.9C-178.7 222.6 -187.5 166.5 -207.8 120C-228.2 73.5 -260.1 36.8 -292 0L0 0Z" fill="#003baf"></path><path d="M0 194.7C-37.8 191.8 -75.5 188.8 -97.3 168.6C-119.2 148.4 -125 111 -138.6 80C-152.1 49 -173.4 24.5 -194.7 0L0 0Z" fill="#423ae1"></path><path d="M0 97.3C-18.9 95.9 -37.8 94.4 -48.7 84.3C-59.6 74.2 -62.5 55.5 -69.3 40C-76.1 24.5 -86.7 12.3 -97.3 0L0 0Z" fill="#742ff6"></path></g><g transform="translate(0, 600)"><path d="M0 -486.7C66.1 -441.8 132.2 -396.9 209 -362C285.8 -327 373.5 -302 421.5 -243.4C469.6 -184.7 478.2 -92.4 486.7 0L0 0Z" fill="#001d3b"></path><path d="M0 -389.4C52.9 -353.5 105.7 -317.6 167.2 -289.6C228.7 -261.6 298.8 -241.6 337.2 -194.7C375.7 -147.8 382.5 -73.9 389.4 0L0 0Z" fill="#002f75"></path><path d="M0 -292C39.6 -265.1 79.3 -238.2 125.4 -217.2C171.5 -196.2 224.1 -181.2 252.9 -146C281.8 -110.8 286.9 -55.4 292 0L0 0Z" fill="#003baf"></path><path d="M0 -194.7C26.4 -176.7 52.9 -158.8 83.6 -144.8C114.3 -130.8 149.4 -120.8 168.6 -97.3C187.8 -73.9 191.3 -36.9 194.7 0L0 0Z" fill="#423ae1"></path><path d="M0 -97.3C13.2 -88.4 26.4 -79.4 41.8 -72.4C57.2 -65.4 74.7 -60.4 84.3 -48.7C93.9 -36.9 95.6 -18.5 97.3 0L0 0Z" fill="#742ff6"></path></g></svg>