<svg id="visual" viewBox="0 0 960 540" width="960" height="540" xmlns="http://www.w3.org/2000/svg" xmlns:xlink="http://www.w3.org/1999/xlink" version="1.1"><rect x="0" y="0" width="960" height="540" fill="#000e1a"></rect><defs><linearGradient id="grad1_0" x1="43.8%" y1="100%" x2="100%" y2="0%"><stop offset="14.444444444444446%" stop-color="#000e1a" stop-opacity="1"></stop><stop offset="85.55555555555554%" stop-color="#000e1a" stop-opacity="1"></stop></linearGradient></defs><defs><linearGradient id="grad2_0" x1="0%" y1="100%" x2="56.3%" y2="0%"><stop offset="14.444444444444446%" stop-color="#000e1a" stop-opacity="1"></stop><stop offset="85.55555555555554%" stop-color="#000e1a" stop-opacity="1"></stop></linearGradient></defs><g transform="translate(960, 540)"><path d="M-189 0C-183.4 -32.5 -177.9 -65 -162.8 -94C-147.8 -123 -123.2 -148.4 -94.5 -163.7C-65.8 -178.9 -32.9 -184 0 -189L0 0Z" fill="#5b2ff9"></path></g><g transform="translate(0, 0)"><path d="M189 0C183 32.2 176.9 64.5 161.9 93.5C147 122.5 123 148.3 94.5 163.7C66 179.1 33 184 0 189L0 0Z" fill="#5b2ff9"></path></g></svg>