<svg class="animated" id="freepik_stories-video-call" xmlns="http://www.w3.org/2000/svg" viewBox="0 0 500 500" version="1.1" xmlns:xlink="http://www.w3.org/1999/xlink" xmlns:svgjs="http://svgjs.com/svgjs"><style>svg#freepik_stories-video-call:not(.animated) .animable {opacity: 0;}svg#freepik_stories-video-call.animated #freepik--background-simple--inject-53 {animation: 1s 1 forwards cubic-bezier(.36,-0.01,.5,1.38) zoomIn;animation-delay: 0s;}svg#freepik_stories-video-call.animated #freepik--Plants--inject-53 {animation: 1s 1 forwards cubic-bezier(.36,-0.01,.5,1.38) zoomIn,3s Infinite  linear wind;animation-delay: 0s,1s;}svg#freepik_stories-video-call.animated #freepik--Icons--inject-53 {animation: 0.7s 1 forwards cubic-bezier(.36,-0.01,.5,1.38) zoomIn,6s Infinite  linear floating;animation-delay: 0.5s,1.2s;opacity: 0}svg#freepik_stories-video-call.animated #freepik--Device--inject-53 {animation: 1s 1 forwards cubic-bezier(.36,-0.01,.5,1.38) slideUp;animation-delay: 0s;}svg#freepik_stories-video-call.animated #freepik--Character--inject-53 {animation: 1s 1 forwards cubic-bezier(.36,-0.01,.5,1.38) fadeIn;animation-delay: 0s;}            @keyframes zoomIn {                0% {                    opacity: 0;                    transform: scale(0.5);                }                100% {                    opacity: 1;                    transform: scale(1);                }            }                    @keyframes wind {                0% {                    transform: rotate( 0deg );                }                25% {                    transform: rotate( 1deg );                }                75% {                    transform: rotate( -1deg );                }            }                    @keyframes floating {                0% {                    opacity: 1;                    transform: translateY(0px);                }                50% {                    transform: translateY(-10px);                }                100% {                    opacity: 1;                    transform: translateY(0px);                }            }                    @keyframes slideUp {                0% {                    opacity: 0;                    transform: translateY(30px);                }                100% {                    opacity: 1;                    transform: inherit;                }            }                    @keyframes fadeIn {                0% {                    opacity: 0;                }                100% {                    opacity: 1;                }            }        </style><g id="freepik--background-simple--inject-53" style="transform-origin: 251.976px 230.725px 0px;" class="animable animator-active"><path d="M334,34.58s-77.4-27.52-153.37,16.3S66.3,181.67,33.38,251.34s-14,140.55,44,172.86,97.43-15.32,178.79-17.64S359.44,415.87,427,369.91s79.71-154.51,26.46-234.82S334,34.58,334,34.58Z" style="fill: rgb(60, 49, 180); transform-origin: 251.976px 230.725px 0px;" id="eluq07b7g03z" class="animable"></path><g id="el5yhzzzdhvmf"><path d="M334,34.58s-77.4-27.52-153.37,16.3S66.3,181.67,33.38,251.34s-14,140.55,44,172.86,97.43-15.32,178.79-17.64S359.44,415.87,427,369.91s79.71-154.51,26.46-234.82S334,34.58,334,34.58Z" style="fill: rgb(255, 255, 255); opacity: 0.7; transform-origin: 251.976px 230.725px 0px;" class="animable"></path></g></g><g id="freepik--Plants--inject-53" style="transform-origin: 232.82px 295.03px 0px;" class="animable"><path d="M40,228.67c4-.29,11.87-4.66,11.87-4.67s-4.45-4.3-4.77-4.54c-3.67-2.73-12.36-5.85-16.53-2.88a6.06,6.06,0,0,0-.77,9C32.19,228.29,36.6,228.92,40,228.67Z" style="fill: rgb(60, 49, 180); transform-origin: 40.0104px 222.047px 0px;" id="ele3qzglkim2t" class="animable"></path><path d="M54.89,250.27c3.63-1.29,9.65-7.09,10.12-7.55a109,109,0,0,0,10.58,9.65c2.17,1.74,4.41,3.44,6.67,5.1-1.14-.6-2.18-1.14-2.33-1.2-4.26-1.66-13.47-2.38-16.71,1.59a6.06,6.06,0,0,0,1.64,8.87c3,2,7.44,1.44,10.66.3s8.49-6,9.86-7.3l2.62,1.9c4.21,3,8.43,6,12.47,9.05,1.43,1.08,2.8,2.19,4.17,3.3-1-.54-1.89-1-2-1-4.26-1.67-13.47-2.38-16.71,1.59a6.07,6.07,0,0,0,1.64,8.87c3,2,7.44,1.44,10.66.3s8-5.53,9.62-7.07c1.36,1.18,2.74,2.36,4,3.56.85.84,1.73,1.59,2.53,2.48l2.43,2.57c1.49,1.7,3,3.43,4.44,5.12,1,1.16,1.9,2.29,2.83,3.43-1.4-1.09-4.2-3.16-4.46-3.31-3.95-2.29-12.95-4.39-16.75-1a6.06,6.06,0,0,0,.27,9c2.68,2.42,7.13,2.54,10.49,1.9,3.7-.7,10.27-5.3,11.09-5.88,1.53,1.88,3,3.73,4.37,5.49,3.66,4.74,6.71,9,9.08,12.35l3-1.59c-2.5-3.43-5.76-7.76-9.72-12.64-1.54-1.92-3.23-3.94-5-6a66.33,66.33,0,0,0,4.66-6.18c3.65,1.29,11.14,1.1,12.11,1.07.23,2.41.44,4.76.6,7,.44,5.8.65,10.88.76,14.95l3.28-1.72c-.21-3.82-.52-8.37-1-13.49-.23-2.46-.53-5.07-.86-7.76.95-.27,8.67-2.53,11.53-5,2.6-2.22,5.29-5.77,5.08-9.38a6.06,6.06,0,0,0-6.87-5.85c-5,.82-9,9.15-9.73,13.67,0,.27-.16,3.21-.2,5.07-.14-1.1-.27-2.16-.42-3.29-.3-2.23-.67-4.45-1-6.83-.22-1.15-.45-2.31-.68-3.47s-.57-2.37-.85-3.57c-.71-2.76-1.56-5.52-2.48-8.29,2-.26,8.87-1.31,11.79-3.12s6.1-4.9,6.44-8.5a6.07,6.07,0,0,0-5.9-6.83c-5.12,0-10.33,7.68-11.69,12-.09.27-.71,3.51-1,5.3-.57-1.66-1.13-3.32-1.75-5-1.81-4.79-3.79-9.58-5.75-14.37-.6-1.46-1.17-2.93-1.76-4.4.69-.09,8.95-1.15,12.21-3.18,2.91-1.8,6.11-4.9,6.44-8.5a6.06,6.06,0,0,0-5.9-6.82c-5.12,0-10.32,7.67-11.69,12-.1.33-1,5-1.17,6.19-1.29-3.23-2.54-6.46-3.65-9.7A107.62,107.62,0,0,1,123.23,211c.32,0,8.94-1.12,12.29-3.19,2.9-1.8,6.1-4.9,6.43-8.5a6.06,6.06,0,0,0-5.89-6.83c-5.13,0-10.33,7.68-11.7,12-.1.35-1.06,5.37-1.17,6.29-.06-.26-.14-.53-.19-.79a77.64,77.64,0,0,1-1.22-13.82c0-2.56.08-5,.24-7.39,1.63,0,9-.28,12.27-1.81s6.61-4.2,7.33-7.75a6.06,6.06,0,0,0-5.11-7.43c-5.1-.52-11.11,6.5-12.94,10.69-.1.22-.86,2.65-1.39,4.43.09-1.07.16-2.18.27-3.21.39-3.85,1-7.36,1.54-10.46.33-1.76.67-3.34,1-4.82,1.58-.87,7.89-4.44,10-7.23s3.93-6.77,2.94-10.25a6.06,6.06,0,0,0-8-4.24c-4.77,1.88-6.87,10.88-6.57,15.44,0,.4,1.14,6.52,1.23,6.48l.09-.06c-.34,1.42-.69,3-1,4.62-.62,3.09-1.3,6.59-1.78,10.45a110.79,110.79,0,0,0-1,12.53,79.14,79.14,0,0,0,.94,14l0,.16c-.67-1.34-2.69-5-2.87-5.29-2.64-3.74-9.93-9.42-14.82-7.89a6.07,6.07,0,0,0-3.53,8.3c1.42,3.33,5.42,5.3,8.73,6.13,3.74.93,12-.59,12.61-.71a107.26,107.26,0,0,0,3.5,13.88c.85,2.66,1.78,5.3,2.75,7.94-.62-1.14-1.19-2.15-1.28-2.29-2.64-3.74-9.92-9.41-14.81-7.89a6.06,6.06,0,0,0-3.53,8.3c1.41,3.33,5.41,5.3,8.72,6.13s10.4-.32,12.25-.65c.38,1,.76,2,1.14,3,1.85,4.84,3.72,9.65,5.41,14.44.6,1.68,1.12,3.36,1.65,5-.55-1-1-1.86-1.11-2-2.63-3.74-9.92-9.42-14.81-7.89a6.05,6.05,0,0,0-3.53,8.3c1.42,3.32,5.41,5.3,8.72,6.12s9.71-.2,11.92-.58c.49,1.73,1,3.47,1.39,5.18.24,1.17.56,2.28.74,3.47s.41,2.33.61,3.48c.31,2.23.63,4.53.88,6.71.18,1.52.32,3,.47,4.43-.57-1.68-1.77-5-1.9-5.22a23.49,23.49,0,0,0-8.13-8.66,6.74,6.74,0,0,0-.69-1.15,6.07,6.07,0,0,0-9-1.09c-3.76,3.47-2.49,12.62-.57,16.77.11.25,1.64,2.77,2.63,4.34-.73-.84-1.42-1.66-2.17-2.51-1.48-1.69-3-3.34-4.64-5.12l-2.49-2.52c-.81-.86-1.78-1.66-2.67-2.51-2.11-1.91-4.35-3.74-6.64-5.54,1.48-1.3,6.67-6,8.11-9.11s2.39-7.45.68-10.64a6.07,6.07,0,0,0-8.69-2.44c-4.24,2.86-4.37,12.1-3.1,16.49.07.28,1.34,3.33,2.07,5-1.39-1.07-2.77-2.14-4.2-3.18-4.15-3-8.45-5.9-12.72-8.81l-3.9-2.7c.53-.46,6.83-5.9,8.44-9.39,1.42-3.1,2.38-7.45.67-10.64A6.06,6.06,0,0,0,85.56,235c-4.25,2.86-4.38,12.1-3.11,16.49.1.33,1.92,4.72,2.44,5.81-2.85-2-5.68-4-8.39-6.07a105.22,105.22,0,0,1-10.44-9.1c.24-.21,6.84-5.86,8.49-9.43,1.43-3.11,2.38-7.46.68-10.65a6.07,6.07,0,0,0-8.69-2.44c-4.25,2.87-4.38,12.1-3.11,16.5.1.34,2.07,5.06,2.49,5.89-.19-.19-.41-.36-.59-.56a77.75,77.75,0,0,1-8.65-10.85c-1.44-2.12-2.69-4.22-3.87-6.3,1.34-.92,7.4-5.22,9.23-8.28s3.19-7.14,1.85-10.5a6.07,6.07,0,0,0-8.37-3.38c-4.53,2.38-5.68,11.55-4.9,16,0,.25.75,2.69,1.29,4.47-.52-.95-1.07-1.91-1.54-2.83-1.8-3.43-3.24-6.68-4.49-9.57-.69-1.65-1.29-3.16-1.83-4.57.83-1.6,4.13-8.06,4.35-11.55s-.47-7.81-3.21-10.17a6.06,6.06,0,0,0-9,.86c-2.93,4.2.28,12.86,3,16.5.24.32,4.55,4.81,4.59,4.72l0-.09c.5,1.37,1.05,2.83,1.68,4.42,1.18,2.93,2.55,6.22,4.28,9.7A108.6,108.6,0,0,0,56,231a79.77,79.77,0,0,0,8.52,11.18l.12.11c-1.3-.74-5-2.7-5.32-2.82-4.26-1.66-13.47-2.38-16.71,1.59A6.06,6.06,0,0,0,44.23,250C47.25,252,51.67,251.41,54.89,250.27Z" style="fill: rgb(60, 49, 180); transform-origin: 98.8245px 229.345px 0px;" id="elhqjcw651zj" class="animable"></path><path d="M121.39,188c.1,0-1.33-6-1.47-6.42-1.55-4.3-7.08-11.7-12.2-11.53a6.07,6.07,0,0,0-5.6,7.08c.49,3.58,3.82,6.54,6.8,8.21C112.42,187.35,121.39,188,121.39,188Z" style="fill: rgb(60, 49, 180); transform-origin: 111.714px 179.024px 0px;" id="elqufoq23g25" class="animable"></path><path d="M428.68,381.48c-3-.22-8.82-3.46-8.82-3.47s3.31-3.2,3.55-3.38c2.72-2,9.19-4.35,12.29-2.14a4.51,4.51,0,0,1,.57,6.68C434.49,381.2,431.22,381.66,428.68,381.48Z" style="fill: rgb(60, 49, 180); transform-origin: 428.674px 376.557px 0px;" id="el44yghfcx6b" class="animable"></path><path d="M417.62,397.54c-2.7-1-7.17-5.27-7.53-5.61a80.85,80.85,0,0,1-7.86,7.17c-1.61,1.3-3.28,2.55-5,3.79.85-.45,1.62-.85,1.73-.89,3.17-1.24,10-1.77,12.42,1.18a4.51,4.51,0,0,1-1.21,6.6c-2.25,1.48-5.53,1.06-7.93.22s-6.31-4.46-7.33-5.43L393,406c-3.13,2.24-6.26,4.46-9.27,6.73-1.06.8-2.08,1.63-3.09,2.45.75-.4,1.4-.73,1.5-.77,3.17-1.24,10-1.77,12.42,1.18a4.51,4.51,0,0,1-1.22,6.6c-2.24,1.48-5.53,1.06-7.92.22s-5.94-4.11-7.15-5.25c-1,.87-2,1.75-3,2.64-.63.62-1.29,1.18-1.89,1.84l-1.8,1.92c-1.11,1.25-2.25,2.55-3.3,3.8-.73.87-1.42,1.71-2.11,2.55,1.05-.81,3.13-2.35,3.32-2.46,2.94-1.7,9.63-3.27,12.46-.71a4.5,4.5,0,0,1-.21,6.7c-2,1.8-5.3,1.89-7.8,1.42-2.74-.53-7.63-3.94-8.24-4.38-1.14,1.4-2.23,2.78-3.24,4.09-2.73,3.52-5,6.65-6.76,9.18l-2.24-1.18c1.87-2.56,4.29-5.78,7.23-9.4,1.15-1.43,2.4-2.93,3.71-4.46A48.72,48.72,0,0,1,361,424.1c-2.71,1-8.28.82-9,.79-.18,1.8-.34,3.55-.46,5.2-.32,4.31-.48,8.09-.56,11.12l-2.44-1.28c.16-2.85.39-6.23.76-10,.17-1.83.39-3.77.63-5.77-.7-.2-6.44-1.88-8.57-3.7-1.93-1.65-3.93-4.28-3.77-7a4.5,4.5,0,0,1,5.1-4.35c3.76.61,6.72,6.8,7.24,10.17,0,.19.11,2.38.14,3.76.11-.81.2-1.6.32-2.44.22-1.66.49-3.31.78-5.08.16-.85.33-1.71.5-2.58s.42-1.76.63-2.65c.53-2.05,1.16-4.11,1.85-6.16-1.46-.2-6.6-1-8.77-2.32s-4.53-3.65-4.78-6.32a4.51,4.51,0,0,1,4.38-5.08c3.81,0,7.68,5.71,8.69,8.95.07.21.53,2.62.76,3.95.42-1.24.84-2.47,1.3-3.7,1.35-3.56,2.82-7.12,4.27-10.68.45-1.09.88-2.18,1.32-3.27-.52-.07-6.66-.86-9.08-2.36-2.16-1.34-4.54-3.65-4.79-6.32a4.52,4.52,0,0,1,4.39-5.08c3.8,0,7.67,5.71,8.69,9,.07.24.74,3.71.87,4.6.95-2.4,1.89-4.81,2.71-7.21a78.18,78.18,0,0,0,2.74-9.92c-.24,0-6.64-.83-9.13-2.37-2.16-1.34-4.54-3.64-4.79-6.32a4.52,4.52,0,0,1,4.39-5.08c3.81,0,7.68,5.71,8.69,9,.08.25.79,4,.88,4.67,0-.19.1-.39.13-.59a57.58,57.58,0,0,0,.91-10.27c0-1.91-.06-3.73-.18-5.5-1.21,0-6.73-.2-9.12-1.34s-4.91-3.13-5.45-5.76a4.51,4.51,0,0,1,3.8-5.53c3.79-.38,8.26,4.83,9.62,7.95.08.17.64,2,1,3.29-.06-.79-.12-1.62-.2-2.38-.29-2.87-.73-5.47-1.14-7.78-.25-1.3-.5-2.48-.74-3.58-1.17-.65-5.86-3.3-7.43-5.38s-2.92-5-2.19-7.62a4.51,4.51,0,0,1,5.92-3.15c3.54,1.4,5.11,8.09,4.88,11.48,0,.3-.85,4.85-.91,4.82l-.07,0c.26,1.05.52,2.18.78,3.43.46,2.3,1,4.9,1.32,7.77a80.06,80.06,0,0,1,.7,9.31,58.76,58.76,0,0,1-.69,10.43l0,.12c.5-1,2-3.73,2.14-3.93,2-2.78,7.38-7,11-5.87a4.51,4.51,0,0,1,2.63,6.17c-1.06,2.47-4,3.94-6.49,4.56-2.78.69-8.89-.44-9.37-.53a80.84,80.84,0,0,1-2.61,10.32c-.63,2-1.32,3.94-2,5.9.46-.84.88-1.6.95-1.7,2-2.78,7.38-7,11-5.87a4.52,4.52,0,0,1,2.63,6.18c-1.06,2.47-4,3.94-6.49,4.55s-7.73-.23-9.11-.48l-.84,2.25c-1.38,3.6-2.77,7.18-4,10.73-.45,1.25-.84,2.5-1.23,3.75.41-.75.76-1.38.83-1.47,1.95-2.78,7.37-7,11-5.87a4.51,4.51,0,0,1,2.62,6.17c-1.05,2.48-4,3.94-6.49,4.56s-7.21-.16-8.86-.44c-.36,1.29-.73,2.58-1,3.85-.18.87-.42,1.7-.55,2.58s-.3,1.74-.45,2.59c-.23,1.66-.47,3.37-.65,5-.14,1.13-.24,2.21-.35,3.29.42-1.25,1.31-3.68,1.4-3.88a17.54,17.54,0,0,1,6.05-6.44A5,5,0,0,1,360,413a4.5,4.5,0,0,1,6.65-.81c2.8,2.58,1.86,9.38.43,12.47-.08.18-1.22,2.05-1.95,3.22.53-.62,1.05-1.23,1.61-1.86,1.1-1.26,2.23-2.49,3.45-3.81l1.85-1.87c.6-.64,1.32-1.24,2-1.87,1.57-1.42,3.23-2.78,4.94-4.12-1.1-1-5-4.45-6-6.77s-1.78-5.54-.51-7.91a4.5,4.5,0,0,1,6.46-1.81c3.16,2.12,3.25,9,2.31,12.26-.06.2-1,2.47-1.54,3.7,1-.79,2.06-1.59,3.12-2.36,3.09-2.23,6.28-4.39,9.46-6.55l2.9-2c-.4-.34-5.08-4.38-6.27-7-1.07-2.3-1.78-5.54-.51-7.91a4.5,4.5,0,0,1,6.46-1.81c3.16,2.13,3.25,9,2.31,12.26-.07.25-1.43,3.51-1.82,4.32,2.13-1.48,4.23-3,6.24-4.52a78.78,78.78,0,0,0,7.77-6.76c-.19-.16-5.09-4.36-6.32-7-1.06-2.31-1.77-5.55-.5-7.91a4.51,4.51,0,0,1,6.46-1.82c3.15,2.13,3.25,9,2.31,12.26-.08.26-1.54,3.77-1.85,4.38l.44-.41a59.06,59.06,0,0,0,6.43-8.07c1.06-1.57,2-3.14,2.87-4.68-1-.69-5.49-3.89-6.86-6.16s-2.37-5.31-1.37-7.8a4.51,4.51,0,0,1,6.22-2.52c3.37,1.77,4.22,8.59,3.64,11.94,0,.18-.56,2-1,3.32.39-.71.79-1.42,1.15-2.11,1.34-2.55,2.4-5,3.33-7.11.52-1.23,1-2.35,1.37-3.4-.62-1.18-3.07-6-3.24-8.58s.35-5.81,2.39-7.56a4.5,4.5,0,0,1,6.67.63c2.18,3.13-.21,9.57-2.26,12.27-.18.24-3.38,3.58-3.42,3.51l0-.07c-.37,1-.78,2.11-1.25,3.29-.88,2.17-1.9,4.62-3.19,7.21a81.35,81.35,0,0,1-4.54,8.16,58.31,58.31,0,0,1-6.34,8.31l-.09.09c1-.55,3.73-2,4-2.1,3.16-1.24,10-1.77,12.42,1.18a4.51,4.51,0,0,1-1.22,6.6C423.3,398.8,420,398.38,417.62,397.54Z" style="fill: rgb(60, 49, 180); transform-origin: 384.973px 382.054px 0px;" id="el2m1fx5r01os" class="animable"></path><path d="M368.18,351.28c-.07,0,1-4.5,1.09-4.78,1.16-3.19,5.27-8.7,9.07-8.56a4.5,4.5,0,0,1,4.16,5.26c-.36,2.66-2.84,4.86-5.05,6.1C374.85,350.76,368.18,351.28,368.18,351.28Z" style="fill: rgb(60, 49, 180); transform-origin: 375.371px 344.609px 0px;" id="el79atyjv45qk" class="animable"></path></g><g id="freepik--Icons--inject-53" style="transform-origin: 255.712px 231.948px 0px;" class="animable"><g id="elocopp3eqxuh"><circle cx="421.48" cy="178.13" r="35.75" style="fill: none; stroke: rgb(38, 50, 56); stroke-linecap: round; stroke-linejoin: round; stroke-width: 0.724166px; transform-origin: 421.48px 178.13px 0px; transform: rotate(-4.57392deg);" class="animable"></circle></g><path d="M421.42,187h0a7.21,7.21,0,0,1-7.21-7.21V156.89a7.21,7.21,0,0,1,7.21-7.22h0a7.22,7.22,0,0,1,7.22,7.22v22.87A7.21,7.21,0,0,1,421.42,187Z" style="fill: none; stroke: rgb(38, 50, 56); stroke-miterlimit: 10; transform-origin: 421.425px 168.335px 0px;" id="elryr2ezsi5w" class="animable"></path><path d="M421.48,192.16a12.76,12.76,0,0,1-12.75-12.75V168.67a1.32,1.32,0,0,1,2.64,0v10.74a10.12,10.12,0,0,0,20.23,0V168.67a1.32,1.32,0,0,1,2.64,0v10.74A12.77,12.77,0,0,1,421.48,192.16Z" style="fill: none; stroke: rgb(38, 50, 56); stroke-miterlimit: 10; transform-origin: 421.485px 179.755px 0px;" id="el7cg96g8bm79" class="animable"></path><path d="M421.48,205.89a1.32,1.32,0,0,1-1.32-1.32V190.84a1.32,1.32,0,1,1,2.64,0v13.73A1.32,1.32,0,0,1,421.48,205.89Z" style="fill: none; stroke: rgb(38, 50, 56); stroke-miterlimit: 10; transform-origin: 421.48px 197.705px 0px;" id="els0tzv77hj4c" class="animable"></path><path d="M430.28,206.59h-17.6a1.32,1.32,0,0,1,0-2.64h17.6a1.32,1.32,0,1,1,0,2.64Z" style="fill: none; stroke: rgb(38, 50, 56); stroke-miterlimit: 10; transform-origin: 421.481px 205.27px 0px;" id="elwwpx8aaubn" class="animable"></path><g id="el8ttu22185g9"><circle cx="87.4" cy="81.8" r="33.2" style="fill: none; stroke: rgb(38, 50, 56); stroke-linecap: round; stroke-linejoin: round; stroke-width: 0.724166px; transform-origin: 87.4px 81.8px 0px; transform: rotate(-22.65deg);" class="animable"></circle></g><path d="M107.88,72.07l-9.7,5.6V73.08a4,4,0,0,0-4-4H72.32a4,4,0,0,0-4,4V90.72a4,4,0,0,0,4,4h21.9a4,4,0,0,0,4-4V86.13l9.7,5.6Z" style="fill: none; stroke: rgb(38, 50, 56); stroke-miterlimit: 10; transform-origin: 88.12px 81.9px 0px;" id="eluyqdlcdj32f" class="animable"></path><circle cx="424.92" cy="277.56" r="18.73" style="fill: none; stroke: rgb(38, 50, 56); stroke-linecap: round; stroke-linejoin: round; stroke-width: 0.724166px; transform-origin: 424.92px 277.56px 0px;" id="elg8ka0cbtkcf" class="animable"></circle><path d="M436.47,272.07,431,275.23v-2.59a2.23,2.23,0,0,0-2.23-2.23H416.41a2.23,2.23,0,0,0-2.23,2.23v9.95a2.23,2.23,0,0,0,2.23,2.23h12.36a2.23,2.23,0,0,0,2.23-2.23V280l5.47,3.16Z" style="fill: none; stroke: rgb(38, 50, 56); stroke-miterlimit: 10; transform-origin: 425.325px 277.615px 0px;" id="elvbskqthrjog" class="animable"></path><g id="el83y4muuor9f"><circle cx="78.7" cy="394" r="21.3" style="fill: none; stroke: rgb(38, 50, 56); stroke-linecap: round; stroke-linejoin: round; stroke-width: 0.724166px; transform-origin: 78.7px 394px 0px; transform: rotate(-13.28deg);" class="animable"></circle></g><path d="M89.48,389.5H67.92a4.06,4.06,0,0,0-4,4.81l.62,3.37a1,1,0,0,0,1,.82H72a1,1,0,0,0,1-1v-3.67H84.37v3.67a1,1,0,0,0,1,1h6.5a1,1,0,0,0,1-.82l.62-3.37A4.06,4.06,0,0,0,89.48,389.5Z" style="fill: none; stroke: rgb(38, 50, 56); stroke-miterlimit: 10; transform-origin: 78.705px 394px 0px;" id="elfvpgarnmdxu" class="animable"></path></g><g id="freepik--Device--inject-53" style="transform-origin: 251.655px 250.29px 0px;" class="animable"><path d="M339.87,47.07H268.24l-3,5.52a18.58,18.58,0,0,1-32.5,0l-3-5.52H158.16a13.66,13.66,0,0,0-13.84,13.48V429.41a13.65,13.65,0,0,0,13.84,13.47H339.87a13.65,13.65,0,0,0,13.83-13.47V60.55A13.65,13.65,0,0,0,339.87,47.07Z" style="fill: rgb(214, 214, 214); transform-origin: 249.01px 244.975px 0px;" id="elnm1h62jwwp9" class="animable"></path><rect x="324.86" y="52.37" width="14.44" height="7.92" style="fill: none; stroke: rgb(38, 50, 56); stroke-linecap: round; stroke-linejoin: round; stroke-width: 0.821067px; transform-origin: 332.08px 56.33px 0px;" id="elasml1c2d5u" class="animable"></rect><rect x="324.86" y="52.37" width="11.26" height="7.92" style="fill: rgb(38, 50, 56); stroke: rgb(38, 50, 56); stroke-linecap: round; stroke-linejoin: round; stroke-width: 0.725073px; transform-origin: 330.49px 56.33px 0px;" id="el2qy71dqxcew" class="animable"></rect><rect x="339.27" y="54.59" width="2.03" height="3.49" style="fill: rgb(38, 50, 56); stroke: rgb(38, 50, 56); stroke-linecap: round; stroke-linejoin: round; stroke-width: 0.725073px; transform-origin: 340.285px 56.335px 0px;" id="elv4lxz0hk3xl" class="animable"></rect><rect x="156.24" y="54.83" width="2.65" height="4.54" style="fill: rgb(38, 50, 56); stroke: rgb(38, 50, 56); stroke-linecap: round; stroke-linejoin: round; stroke-width: 0.883086px; transform-origin: 157.565px 57.1px 0px;" id="els5brwi0kfy" class="animable"></rect><rect x="160.4" y="53.23" width="2.65" height="6.13" style="fill: rgb(38, 50, 56); stroke: rgb(38, 50, 56); stroke-linecap: round; stroke-linejoin: round; stroke-width: 0.883086px; transform-origin: 161.725px 56.295px 0px;" id="elm9clnbpe7u" class="animable"></rect><rect x="164.56" y="51.35" width="2.65" height="8.02" style="fill: rgb(38, 50, 56); stroke: rgb(38, 50, 56); stroke-linecap: round; stroke-linejoin: round; stroke-width: 0.883086px; transform-origin: 165.885px 55.36px 0px;" id="elm4nnm8pz96" class="animable"></rect><line x1="150.72" y1="63" x2="347.26" y2="63" style="fill: none; stroke: rgb(38, 50, 56); stroke-linecap: round; stroke-linejoin: round; transform-origin: 248.99px 63px 0px;" id="elsog1wb1aq1" class="animable"></line><g id="elsd3kd7cx35"><path d="M286.43,297.33c-.6-4.51-1.35-9.52-1.94-13.32a50.13,50.13,0,0,0,9.58-22.86c.6-4.61.49-12.76.06-21.78a9.89,9.89,0,0,0,3.22-4.33c2.07-5,9.06-20.54,1-25.18a6.62,6.62,0,0,0-4.69-1.06,41.61,41.61,0,0,1,2.8-9.87c4.24-9.43,12.26-18.38,9-31.58S288,147.08,283.7,152.74s-4.24,10.37-12.25,4.24-19.32-14.61-36.76-9.9-19.33,9-10.84,17.91c0,0-27.81-1.41-34.88,14.14-5,10.92,3.3,15.8,8.51,18.55a3.27,3.27,0,0,0-1.54,1.47l-14,27.14,3.51-36.3a4.17,4.17,0,0,0-8.22-1.29l-8.38,36.78-2.81-.36,1.76-36.84a4.08,4.08,0,0,0-8.1-.88l-5.66,37-5.1-.29V194.71a4.06,4.06,0,0,0-4.65-4V317.58l.69-1.28,2.65,2.05,13.9-19.11-5.41-2.77C161,288.3,168,276.05,168,276.05s13.59-2.43,17.5-9.38S192,251,196.74,244.53s9.12-9.12,10.85-14.33a.83.83,0,0,0,0-.15c2.21,5.23,6.37,10.35,8.2,12.71,2.52,3.24,5.85,4.55,7.3,2.9.13,1,.26,2.05.4,3.09,1.65,8.23,3.54,15.86,5.5,19.94a38.16,38.16,0,0,0,7,9.53,3.72,3.72,0,0,0-5.07,1.24,13.92,13.92,0,0,0-2.31,3.93c-3.66,8.69-11.87,19-11.19,25.15,0,.18,0,.45.06.77-9.48.82-33.69,3.16-37.36,6.09-2.63,2.11-20.83,19.53-35.84,34v71.75l31.86-19.36,5.45,41.12h143.2V302.71c-16-2.89-37.18-5.6-37.18-5.6Zm-78.14-78.6c-2,2-2.38,4.56-1.89,7.32-1.65-.44-4.44.5-7.49,2.84-5.65,4.35-11.29,9.12-11.29,9.12l10.51-26.57.26.22c4.12,3,9.11,4.49,11.24,5.93A10.18,10.18,0,0,0,208.29,218.73Z" style="opacity: 0.2; transform-origin: 234.535px 294.311px 0px;" class="animable"></path></g><path d="M204.6,446.39H356.15V297.69c-16.91-3.06-39.36-5.93-39.36-5.93l-70.21,12.59s-38.74,2.9-43.58,6.78S143.36,368,143.36,368v68.22l55.43-33.68Z" style="fill: rgb(255, 255, 255); transform-origin: 249.755px 369.075px 0px;" id="elphin8gfqw7" class="animable"></path><path d="M300.89,433.56a.56.56,0,0,0,0,.79l8.46,8a.57.57,0,0,0,.38.15.58.58,0,0,0,.41-.17.56.56,0,0,0,0-.79l-8.46-8A.55.55,0,0,0,300.89,433.56Z" style="fill: rgb(178, 178, 178); transform-origin: 305.515px 437.941px 0px;" id="elwu1pbufmcq" class="animable"></path><path d="M311.63,372.83a.56.56,0,0,0-.79,0l-5.52,5.91a.54.54,0,0,0-.13-.43.56.56,0,0,0-.79,0l-5.47,5a.57.57,0,0,0,0,.79.56.56,0,0,0,.79,0l4.44-4-.25.27a.56.56,0,0,0,.41.93.54.54,0,0,0,.4-.17l7-7.47A.55.55,0,0,0,311.63,372.83Z" style="fill: rgb(178, 178, 178); transform-origin: 305.32px 378.465px 0px;" id="el17gbwqsmzhl" class="animable"></path><path d="M305.71,334.57a.56.56,0,0,0-.78-.09l-7.47,6a.56.56,0,0,0-.08.78.54.54,0,0,0,.43.21.59.59,0,0,0,.35-.12l7.46-6A.56.56,0,0,0,305.71,334.57Z" style="fill: rgb(178, 178, 178); transform-origin: 301.543px 337.916px 0px;" id="elkuzzbkm4ao8" class="animable"></path><path d="M205.16,327.33l7-7.46a.57.57,0,0,0,0-.79.57.57,0,0,0-.79,0l-7,7.47a.54.54,0,0,0,0,.78.53.53,0,0,0,.37.15A.55.55,0,0,0,205.16,327.33Z" style="fill: rgb(178, 178, 178); transform-origin: 208.261px 323.201px 0px;" id="elmsiwx57n9pf" class="animable"></path><path d="M294.82,361.85a.55.55,0,0,0,.41-.18.54.54,0,0,0,0-.78l-8.45-8a.56.56,0,0,0-.77.81l8.46,8A.57.57,0,0,0,294.82,361.85Z" style="fill: rgb(178, 178, 178); transform-origin: 290.629px 357.305px 0px;" id="elhrs0y5b0kig" class="animable"></path><path d="M278.4,381.75h.07a.56.56,0,0,0,.48-.63l-1.49-11.44a.55.55,0,1,0-1.1.14l1.49,11.45A.56.56,0,0,0,278.4,381.75Z" style="fill: rgb(178, 178, 178); transform-origin: 277.655px 375.473px 0px;" id="eljezreqieef" class="animable"></path><path d="M290.44,420.63l-7,7.46a.54.54,0,0,0,0,.78.54.54,0,0,0,.38.15.56.56,0,0,0,.4-.17l7-7.47a.55.55,0,0,0-.81-.75Z" style="fill: rgb(178, 178, 178); transform-origin: 287.32px 424.737px 0px;" id="elac89yyac1f5" class="animable"></path><path d="M203.76,383.74a.52.52,0,0,0,.21,0,.55.55,0,0,0,.3-.73l-5-11.94a.57.57,0,0,0-.73-.3.56.56,0,0,0-.3.73l5,11.94A.55.55,0,0,0,203.76,383.74Z" style="fill: rgb(178, 178, 178); transform-origin: 201.257px 377.24px 0px;" id="eldvyjtq8dnu" class="animable"></path><path d="M312.74,422.06a.59.59,0,0,0,.35-.12l7.46-6a.56.56,0,1,0-.69-.87l-7.47,6a.55.55,0,0,0-.08.78A.53.53,0,0,0,312.74,422.06Z" style="fill: rgb(178, 178, 178); transform-origin: 316.503px 418.48px 0px;" id="elgh5xtojncww" class="animable"></path><path d="M311.26,350.13a.56.56,0,0,0-.73-.3.55.55,0,0,0-.29.73l5,11.94a.56.56,0,0,0,.51.34.54.54,0,0,0,.22,0,.57.57,0,0,0,.3-.73Z" style="fill: rgb(178, 178, 178); transform-origin: 313.251px 356.319px 0px;" id="el1dp359d9749" class="animable"></path><path d="M313.73,414.59h.08a.55.55,0,0,0,.47-.62l-1.49-11.45a.56.56,0,0,0-.62-.48.56.56,0,0,0-.48.63l1.49,11.44A.56.56,0,0,0,313.73,414.59Z" style="fill: rgb(178, 178, 178); transform-origin: 312.985px 408.313px 0px;" id="elplfdojmzam8" class="animable"></path><path d="M145.41,432.36a.54.54,0,0,0,0-.78.55.55,0,0,0-.78,0l-1.31,1.19v1.5Z" style="fill: rgb(178, 178, 178); transform-origin: 144.448px 432.844px 0px;" id="el5au0dfe5ywy" class="animable"></path><path d="M174,373.85a.55.55,0,0,0,0,.78l8.46,8a.55.55,0,0,0,.38.15.53.53,0,0,0,.4-.18.55.55,0,0,0,0-.78l-8.46-8A.57.57,0,0,0,174,373.85Z" style="fill: rgb(178, 178, 178); transform-origin: 178.62px 378.23px 0px;" id="elgxpm4iq9eub" class="animable"></path><path d="M184.76,349a.54.54,0,0,0-.78,0l-5.48,5a.56.56,0,0,0,0,.79.55.55,0,0,0,.41.18.53.53,0,0,0,.37-.15l5.48-5A.56.56,0,0,0,184.76,349Z" style="fill: rgb(178, 178, 178); transform-origin: 181.638px 351.902px 0px;" id="el8xwpo78xvbx" class="animable"></path><path d="M194.79,333.14a.55.55,0,0,0,.51.34.52.52,0,0,0,.21,0,.55.55,0,0,0,.3-.73L191.33,322l-.87.81Z" style="fill: rgb(178, 178, 178); transform-origin: 193.158px 327.745px 0px;" id="el8t5yze1q90e" class="animable"></path><path d="M193.74,355.47a.56.56,0,0,0-.78-.09l-7.46,6a.56.56,0,0,0-.09.78.55.55,0,0,0,.44.21.54.54,0,0,0,.34-.12l7.47-6A.55.55,0,0,0,193.74,355.47Z" style="fill: rgb(178, 178, 178); transform-origin: 189.579px 358.816px 0px;" id="ele2qmonbxizi" class="animable"></path><path d="M192.44,399.2l-5.48,5a.56.56,0,0,0,0,.79.55.55,0,0,0,.41.18.55.55,0,0,0,.37-.15l5.48-5a.56.56,0,0,0,0-.79A.55.55,0,0,0,192.44,399.2Z" style="fill: rgb(178, 178, 178); transform-origin: 190.09px 402.111px 0px;" id="elkq244leb8b" class="animable"></path><path d="M166.44,402.65h.07A.56.56,0,0,0,167,402l-1.49-11.44a.56.56,0,0,0-1.11.14l1.5,11.45A.54.54,0,0,0,166.44,402.65Z" style="fill: rgb(178, 178, 178); transform-origin: 165.703px 396.373px 0px;" id="elcf3t6v4vzs8" class="animable"></path><path d="M157,369.31a.55.55,0,0,0,.41-.18l7-7.46a.56.56,0,0,0-.82-.76l-7,7.47a.55.55,0,0,0,0,.78A.57.57,0,0,0,157,369.31Z" style="fill: rgb(178, 178, 178); transform-origin: 160.483px 365.032px 0px;" id="elqqb5fcnz1p" class="animable"></path><path d="M143.36,390.61l2.52-2a.56.56,0,0,0-.69-.87l-1.83,1.46Z" style="fill: rgb(178, 178, 178); transform-origin: 144.699px 389.135px 0px;" id="elog36sbmed0g" class="animable"></path><path d="M150.8,403.08a.54.54,0,0,0-.3.72l5,11.95a.57.57,0,0,0,.52.34.54.54,0,0,0,.21,0,.55.55,0,0,0,.3-.72l-5-11.95A.54.54,0,0,0,150.8,403.08Z" style="fill: rgb(178, 178, 178); transform-origin: 153.513px 409.568px 0px;" id="ely3n62ixjah" class="animable"></path><path d="M211.84,435.34a.55.55,0,0,0,.38.15.54.54,0,0,0,.4-.17l7-7.47a.55.55,0,1,0-.81-.75l-7,7.46A.55.55,0,0,0,211.84,435.34Z" style="fill: rgb(178, 178, 178); transform-origin: 215.715px 431.206px 0px;" id="elgro4lmgsza9" class="animable"></path><path d="M254.53,437.21a.56.56,0,0,0-.72-.3.55.55,0,0,0-.3.73l3.64,8.75h1.21Z" style="fill: rgb(178, 178, 178); transform-origin: 255.912px 441.63px 0px;" id="elfq2l6hxfxei" class="animable"></path><path d="M230,440a.56.56,0,0,0-.79,0,.56.56,0,0,0,0,.79l5.91,5.57h1.62Z" style="fill: rgb(178, 178, 178); transform-origin: 232.894px 443.099px 0px;" id="elyjiupplyfy" class="animable"></path><path d="M322.08,385.77a.56.56,0,0,0-.79,0,.56.56,0,0,0,0,.79l8.45,8a.58.58,0,0,0,.39.15.56.56,0,0,0,.38-1Z" style="fill: rgb(178, 178, 178); transform-origin: 325.926px 390.159px 0px;" id="elu4nn3nunu4j" class="animable"></path><path d="M276.29,340a.56.56,0,0,0-.78,0l-7,7.47a.54.54,0,0,0,0,.78.55.55,0,0,0,.38.15.53.53,0,0,0,.4-.18l7-7.46A.56.56,0,0,0,276.29,340Z" style="fill: rgb(178, 178, 178); transform-origin: 272.391px 344.121px 0px;" id="elyhy8g10lmk" class="animable"></path><path d="M230.63,341a.55.55,0,0,0,.41-.18.54.54,0,0,0,0-.78l-8.46-8a.54.54,0,0,0-.78,0,.55.55,0,0,0,0,.78l8.46,8A.55.55,0,0,0,230.63,341Z" style="fill: rgb(178, 178, 178); transform-origin: 226.422px 336.437px 0px;" id="elzzls6mybrv" class="animable"></path><path d="M229.14,417.08h.07a.56.56,0,0,0,.48-.63L228.2,405a.56.56,0,0,0-1.11.14l1.5,11.45A.54.54,0,0,0,229.14,417.08Z" style="fill: rgb(178, 178, 178); transform-origin: 228.392px 410.808px 0px;" id="els9meqjwb01t" class="animable"></path><path d="M339.74,411.14l-5.48,5a.55.55,0,0,0,.37,1,.59.59,0,0,0,.38-.14l5.47-5a.55.55,0,1,0-.74-.82Z" style="fill: rgb(178, 178, 178); transform-origin: 337.342px 414.09px 0px;" id="elzf0suk90fv" class="animable"></path><path d="M346.59,383a.56.56,0,0,0-.72-.3.55.55,0,0,0-.3.73l5,11.94a.55.55,0,0,0,.52.34.52.52,0,0,0,.21,0,.56.56,0,0,0,.3-.73Z" style="fill: rgb(178, 178, 178); transform-origin: 348.583px 389.191px 0px;" id="elg0f2ar26clg" class="animable"></path><path d="M341,367.41a.55.55,0,0,0-.78-.08l-7.47,6a.55.55,0,0,0-.08.78.54.54,0,0,0,.43.21.57.57,0,0,0,.35-.12l7.46-6A.56.56,0,0,0,341,367.41Z" style="fill: rgb(178, 178, 178); transform-origin: 336.833px 370.762px 0px;" id="el0ptwgu8vrxvo" class="animable"></path><path d="M325.46,430.44a.57.57,0,0,0-.3.73l5,11.94a.56.56,0,0,0,.51.35.59.59,0,0,0,.22,0,.56.56,0,0,0,.3-.72l-5-11.95A.57.57,0,0,0,325.46,430.44Z" style="fill: rgb(178, 178, 178); transform-origin: 328.175px 436.939px 0px;" id="elzoen68slzl" class="animable"></path><path d="M227.06,376.1a.56.56,0,0,0-.82-.76l-7,7.47a.55.55,0,0,0,0,.78.57.57,0,0,0,.38.15.55.55,0,0,0,.41-.18Z" style="fill: rgb(178, 178, 178); transform-origin: 223.133px 379.462px 0px;" id="elej71q0heexr" class="animable"></path><path d="M256.44,369.9a.56.56,0,0,0-.78-.09l-7.46,6a.55.55,0,0,0,.35,1,.54.54,0,0,0,.34-.12l7.47-6A.55.55,0,0,0,256.44,369.9Z" style="fill: rgb(178, 178, 178); transform-origin: 252.268px 373.251px 0px;" id="el0e56qfzen4jd" class="animable"></path><path d="M255.14,413.63l-5.47,5a.56.56,0,0,0,.37,1,.57.57,0,0,0,.37-.14l5.47-5a.55.55,0,1,0-.74-.82Z" style="fill: rgb(178, 178, 178); transform-origin: 252.759px 416.579px 0px;" id="eluouihy0ob3" class="animable"></path><path d="M235.11,363.34a.53.53,0,0,0,.37-.15l5.48-5a.56.56,0,0,0,0-.79.55.55,0,0,0-.78,0l-5.47,5a.56.56,0,0,0,.37,1Z" style="fill: rgb(178, 178, 178); transform-origin: 237.809px 360.319px 0px;" id="elmcsjdxlmx7" class="animable"></path><path d="M261.27,385.16a.56.56,0,0,0-.3.73l5,11.94a.55.55,0,0,0,.51.34.52.52,0,0,0,.21,0,.55.55,0,0,0,.3-.73l-5-11.94A.57.57,0,0,0,261.27,385.16Z" style="fill: rgb(178, 178, 178); transform-origin: 263.982px 391.655px 0px;" id="el92k4wsbqcj7" class="animable"></path><path d="M241.51,313.67a.55.55,0,0,0-.78-.09l-7.46,6a.56.56,0,0,0-.09.78.55.55,0,0,0,.44.21.54.54,0,0,0,.34-.12l7.47-6A.55.55,0,0,0,241.51,313.67Z" style="fill: rgb(178, 178, 178); transform-origin: 237.349px 317.014px 0px;" id="elno8umqi64t" class="animable"></path><path d="M246.34,328.93a.57.57,0,0,0-.3.73l5,11.94a.55.55,0,0,0,.51.34.49.49,0,0,0,.21,0,.55.55,0,0,0,.3-.73l-5-11.94A.57.57,0,0,0,246.34,328.93Z" style="fill: rgb(178, 178, 178); transform-origin: 249.053px 335.425px 0px;" id="el8yc5z4mu87p" class="animable"></path><path d="M241.08,428.53a.59.59,0,0,0,.35-.12l7.46-6a.55.55,0,1,0-.69-.86l-7.47,6a.55.55,0,0,0-.08.78A.54.54,0,0,0,241.08,428.53Z" style="fill: rgb(178, 178, 178); transform-origin: 244.81px 424.979px 0px;" id="el729zin1bonb" class="animable"></path><path d="M214.21,360.85h.07a.56.56,0,0,0,.48-.63l-1.49-11.44a.55.55,0,1,0-1.1.14l1.49,11.45A.54.54,0,0,0,214.21,360.85Z" style="fill: rgb(178, 178, 178); transform-origin: 213.465px 354.573px 0px;" id="elwnv2rtftta" class="animable"></path><path d="M245.18,397a.55.55,0,0,0,.38.15.53.53,0,0,0,.4-.18.55.55,0,0,0,0-.78l-8.46-8a.56.56,0,0,0-.78,0,.54.54,0,0,0,0,.78Z" style="fill: rgb(178, 178, 178); transform-origin: 241.338px 392.591px 0px;" id="elm0kwhfcj3y" class="animable"></path><path d="M204.6,446.39H356.15V297.69c-16.91-3.06-39.36-5.93-39.36-5.93l-70.21,12.59s-38.74,2.9-43.58,6.78S143.36,368,143.36,368v68.22l55.43-33.68Z" style="fill: none; stroke: rgb(38, 50, 56); stroke-linecap: round; stroke-linejoin: round; transform-origin: 249.755px 369.075px 0px;" id="ellosf1dsvby" class="animable"></path><path d="M302.75,343.08s-10.65,19.86-16,37.29-14,66.82-14,66.82h47s4.84-62,13.07-83.29,9.2-25.17,9.2-25.17Z" style="fill: rgb(60, 49, 180); stroke: rgb(38, 50, 56); stroke-linecap: round; stroke-linejoin: round; transform-origin: 307.385px 392.96px 0px;" id="el798hsv8zhe" class="animable"></path><path d="M255.56,331.72s23,21.15,49,29.68,43.63-10.36,45.19-16.86-44.08.54-64.11-6.14S253.33,324.3,255.56,331.72Z" style="fill: rgb(38, 50, 56); stroke: rgb(38, 50, 56); stroke-linecap: round; stroke-linejoin: round; transform-origin: 302.544px 346.1px 0px;" id="elsgk7susxukk" class="animable"></path><path d="M262.56,272.39s-4.36-4.36-8.23,4.84c-3.53,8.39-10.83,29.1-11.14,28.09,1.94,6.29-1,15.49,16,28.56s43.87,22.76,59.07,22.76c16.47,0,27.6-4.84,31.48-12.1s4.35-16,4.35-21.79-1.45-11.14-4.35-19.37-17.43-16.46-24.21-24.21S325,273.36,311,268s-32-2.9-37.28-1.94S262.56,272.39,262.56,272.39Z" style="fill: rgb(38, 50, 56); stroke: rgb(38, 50, 56); stroke-linecap: round; stroke-linejoin: round; transform-origin: 298.64px 310.648px 0px;" id="eld1xo8hk4sls" class="animable"></path><path d="M261.59,264.16S263.53,292.24,265,300s30.51,24.21,40.67,23.24,11.62-15.49,10.66-24.69-3.88-27.12-3.88-27.12-27.11,8.72-36.8,1S261.59,264.16,261.59,264.16Z" style="fill: rgb(255, 255, 255); stroke: rgb(38, 50, 56); stroke-linecap: round; stroke-linejoin: round; transform-origin: 289.085px 293.721px 0px;" id="elxvidiunifa8" class="animable"></path><path d="M265.24,294.1a176.94,176.94,0,0,0,37.49-9.49l10.53-8c-.49-3.11-.83-5.2-.83-5.2s-27.11,8.72-36.8,1-14-8.23-14-8.23,1.31,19,2.58,30C264.53,294.16,264.88,294.15,265.24,294.1Z" style="fill: rgb(38, 50, 56); stroke: rgb(38, 50, 56); stroke-linecap: round; stroke-linejoin: round; transform-origin: 287.445px 279.18px 0px;" id="el49bl8awlwdw" class="animable"></path><path d="M346.76,298.49c.47,4,.13,11.95-9.15,14.09-12.59,2.9-41.64,0-61.49-9.69C259,294.57,257,277.65,256.78,273.08a14.75,14.75,0,0,0-2.45,4.15c-3.88,9.2-12.56,20.09-11.84,26.63.27,2.4-.27,16.95,16.68,30s43.87,22.76,59.07,22.76c16.47,0,27.6-4.84,31.48-12.1s4.35-16,4.35-21.79-1.45-11.14-4.35-19.37A16.83,16.83,0,0,0,346.76,298.49Z" style="fill: rgb(60, 49, 180); stroke: rgb(38, 50, 56); stroke-linecap: round; stroke-linejoin: round; transform-origin: 298.259px 314.85px 0px;" id="el9m6z8b35rpn" class="animable"></path><path d="M348.14,322a46.5,46.5,0,0,0,3.76-4.39" style="fill: none; stroke: rgb(38, 50, 56); stroke-linecap: round; stroke-linejoin: round; transform-origin: 350.02px 319.805px 0px;" id="elzjwn3je0nvf" class="animable"></path><path d="M249.8,286.93s-5.33,15.54,18.2,36.41c20.23,17.94,53.94,19.14,74.83,3.3" style="fill: none; stroke: rgb(38, 50, 56); stroke-linecap: round; stroke-linejoin: round; transform-origin: 296.056px 312.322px 0px;" id="elqrcipt0ci4" class="animable"></path><path d="M250.24,298.92s-.89,27.52,27.08,46.17" style="fill: none; stroke: rgb(38, 50, 56); stroke-linecap: round; stroke-linejoin: round; transform-origin: 263.778px 322.005px 0px;" id="ellze0mellyjr" class="animable"></path><path d="M249.25,151.9s-29.44-1.5-36.93,15,13.48,20,13,22.45-8.49,8-3,12,12.48,5.48,13,7.48,4.49,10.48,4.49,10.48,5,3,8.48,1,2.49-11,5.49-15.47,3-10,13-17.47,33.43-8,37.42-6.48,10,2,12.48,6,2,24.44,4,24.44,1-13.47,5.49-23.45,13-19.46,9.48-33.43-18.46-21.45-22.95-15.46-4.5,11-13,4.49S279.19,128,260.72,132.94,240.27,142.42,249.25,151.9Z" style="fill: rgb(38, 50, 56); stroke: rgb(38, 50, 56); stroke-linecap: round; stroke-linejoin: round; transform-origin: 273.592px 176.256px 0px;" id="elkd7iilpc1h" class="animable"></path><path d="M263.86,138.14a20.1,20.1,0,0,0-4-1" style="fill: none; stroke: rgb(125, 125, 125); stroke-linecap: round; stroke-linejoin: round; transform-origin: 261.86px 137.64px 0px;" id="el35cbh5ctecp" class="animable"></path><path d="M283.59,174.27s10.19-5.22,10.19-13c0-9-13-16.48-23-20.61" style="fill: none; stroke: rgb(125, 125, 125); stroke-linecap: round; stroke-linejoin: round; transform-origin: 282.28px 157.465px 0px;" id="elez99ewpwrq7" class="animable"></path><path d="M280.91,175.16s3.29-11.37-8.49-17c-8.39-4-18.78-4.47-18.78-4.47" style="fill: none; stroke: rgb(125, 125, 125); stroke-linecap: round; stroke-linejoin: round; transform-origin: 267.486px 164.425px 0px;" id="el9c3qakv38uu" class="animable"></path><path d="M223.93,167.52c-1.29,0-2.42,0-3.37,0" style="fill: none; stroke: rgb(125, 125, 125); stroke-linecap: round; stroke-linejoin: round; transform-origin: 222.245px 167.52px 0px;" id="elif52z5664gr" class="animable"></path><path d="M272,171.14s-5.81-6.71-20.57-5.37c-9.05.83-16.59,1.31-22.31,1.57" style="fill: none; stroke: rgb(125, 125, 125); stroke-linecap: round; stroke-linejoin: round; transform-origin: 250.56px 168.367px 0px;" id="el8j3hnckopx4" class="animable"></path><path d="M317.44,161.33a29.54,29.54,0,0,0,3.7-3.16c6.26-6.25,0-15.2,0-15.2" style="fill: none; stroke: rgb(125, 125, 125); stroke-linecap: round; stroke-linejoin: round; transform-origin: 320.681px 152.15px 0px;" id="el0gtcd35w4go" class="animable"></path><path d="M308.18,165.77a23.55,23.55,0,0,0,5.78-2.26" style="fill: none; stroke: rgb(125, 125, 125); stroke-linecap: round; stroke-linejoin: round; transform-origin: 311.07px 164.64px 0px;" id="el2b3u0r94tdt" class="animable"></path><path d="M246.89,184.9s-11.65,10.35-17.47,11.64" style="fill: none; stroke: rgb(125, 125, 125); stroke-linecap: round; stroke-linejoin: round; transform-origin: 238.155px 190.72px 0px;" id="eldocstv8dddu" class="animable"></path><path d="M317.93,205.78s1.58-11.29,10.15-6.38,1.17,21.4-1,26.65-6.75,7.52-8.06,2.7S317.93,205.78,317.93,205.78Z" style="fill: rgb(255, 255, 255); stroke: rgb(38, 50, 56); stroke-linecap: round; stroke-linejoin: round; transform-origin: 325.017px 214.781px 0px;" id="eluycwuerg22" class="animable"></path><path d="M244.26,212.27s-4.49-10.48-11.48-3.49,4.49,21,8,25.45,8.48,5.49,8.48.5S244.26,212.27,244.26,212.27Z" style="fill: rgb(255, 255, 255); stroke: rgb(38, 50, 56); stroke-linecap: round; stroke-linejoin: round; transform-origin: 239.913px 222.21px 0px;" id="el1p4ikqcawux" class="animable"></path><path d="M245.48,205.13s3.27,44.07,9.26,56.54,26.94,27.94,40.91,27.44,26-20,27.94-35.42-3.49-68.86-3.49-68.86-4.49-15.47-12.47-16.47-16.47,7-24.95,7.49-15-8-23.95-4.49-13,11-9.48,14,7,5.49,3,11S245.48,205.13,245.48,205.13Z" style="fill: rgb(255, 255, 255); stroke: rgb(38, 50, 56); stroke-linecap: round; stroke-linejoin: round; transform-origin: 284.744px 228.698px 0px;" id="eled5gw1nsxb9" class="animable"></path><path d="M317.11,194.31s-2.5-3-8-3a17.25,17.25,0,0,0-9.48,3" style="fill: none; stroke: rgb(38, 50, 56); stroke-linecap: round; stroke-linejoin: round; stroke-width: 3px; transform-origin: 308.37px 192.81px 0px;" id="el7x0pl2dlomw" class="animable"></path><path d="M278.69,199.3s-10.48-4.49-18.47,4.49" style="fill: none; stroke: rgb(38, 50, 56); stroke-linecap: round; stroke-linejoin: round; stroke-width: 3px; transform-origin: 269.455px 200.984px 0px;" id="elk1nj9xihp1k" class="animable"></path><path d="M274.2,213.52c0,2.62-1.23,4.74-2.75,4.74s-2.74-2.12-2.74-4.74,1.23-4.74,2.74-4.74S274.2,210.9,274.2,213.52Z" style="fill: rgb(38, 50, 56); transform-origin: 271.455px 213.52px 0px;" id="elemjabfds91c" class="animable"></path><path d="M306.63,209.53c0,2.62-1.23,4.74-2.75,4.74s-2.74-2.12-2.74-4.74,1.23-4.74,2.74-4.74S306.63,206.91,306.63,209.53Z" style="fill: rgb(38, 50, 56); transform-origin: 303.885px 209.53px 0px;" id="el1e5xj8dfmcb" class="animable"></path><line x1="265.21" y1="220.26" x2="275.19" y2="220.76" style="fill: none; stroke: rgb(38, 50, 56); stroke-linecap: round; stroke-linejoin: round; transform-origin: 270.2px 220.51px 0px;" id="elayo4v7c2e74" class="animable"></line><line x1="304.63" y1="218.76" x2="312.62" y2="214.77" style="fill: none; stroke: rgb(38, 50, 56); stroke-linecap: round; stroke-linejoin: round; transform-origin: 308.625px 216.765px 0px;" id="el4mlja2b893" class="animable"></line><path d="M323.59,253.69c.78-6,.43-17.68-.29-29.75a48.52,48.52,0,0,1-2.2,11.29c-2.5,7-2.5,9.48-4,11s-3-2-5.49-5.49-24.95,0-24.95,0c-2.5-.5-14.47,1.5-20,3.5s-6.49,8.48-6,11-5.48-3.49-8.48-12-6-23.45-6-23.45,1.26,10,2.66,20.81c1.74,8.71,3.76,16.79,5.83,21.1,6,12.47,26.94,27.94,40.91,27.44S321.6,269.15,323.59,253.69Z" style="fill: rgb(38, 50, 56); stroke: rgb(38, 50, 56); stroke-linecap: round; stroke-linejoin: round; transform-origin: 285.106px 254.471px 0px;" id="elr34v598xd9" class="animable"></path><path d="M264.77,272.74s6.16,8.07,18.5,13.29" style="fill: none; stroke: rgb(125, 125, 125); stroke-linecap: round; stroke-linejoin: round; transform-origin: 274.02px 279.385px 0px;" id="elcfe1693vo3" class="animable"></path><path d="M280.68,253.69s3.49,6.48,11,7.48,9.48-10.48,9.48-10.48l-19.46,1S279.68,250.69,280.68,253.69Z" style="fill: rgb(255, 255, 255); stroke: rgb(38, 50, 56); stroke-linecap: round; stroke-linejoin: round; transform-origin: 290.781px 255.961px 0px;" id="ela48e8ttrmh7" class="animable"></path><path d="M278.69,251.69s2,12,12.47,14,13-16,13-16Z" style="fill: rgb(255, 255, 255); stroke: rgb(38, 50, 56); stroke-linecap: round; stroke-linejoin: round; transform-origin: 291.425px 257.768px 0px;" id="elztis363o0ga" class="animable"></path><path d="M285.43,252.14s1,5.88,6.12,6.86,6.37-7.84,6.37-7.84Z" style="fill: rgb(38, 50, 56); stroke: rgb(38, 50, 56); stroke-linecap: round; stroke-linejoin: round; transform-origin: 291.675px 255.118px 0px;" id="elj5tkbotaglm" class="animable"></path><path d="M309.12,248.2s-12.47,5.49-20,5.49a60.19,60.19,0,0,1-15.46-2.5s14-4,20.45-4S309.12,248.2,309.12,248.2Z" style="fill: rgb(255, 255, 255); stroke: rgb(38, 50, 56); stroke-linecap: round; stroke-linejoin: round; transform-origin: 291.39px 250.44px 0px;" id="elo4chyd1ommg" class="animable"></path><path d="M298.15,197.3s-6,8.49-5.49,10,8,27.95,4.49,31.94-9,3.49-13,1-8-6.48-6.48-8.48a7.33,7.33,0,0,1,4-2.49" style="fill: rgb(255, 255, 255); stroke: rgb(38, 50, 56); stroke-linecap: round; stroke-linejoin: round; transform-origin: 287.745px 219.737px 0px;" id="el5n9cx3v8ux" class="animable"></path><path d="M148.83,290.8l8.4-21.33s1-2-3.15-7.49-2.49-11.63.27-23.13c2.34-9.77,6-45.45,7.07-55.93a4.26,4.26,0,0,1,3.12-3.7h0a4.3,4.3,0,0,1,5.44,4.14v31.13l5.4.31,6-39.19a4.31,4.31,0,0,1,4-3.61h0a4.33,4.33,0,0,1,4.56,4.55l-1.86,39,3,.38L199.93,177a4.41,4.41,0,0,1,4.8-3.44h0a4.42,4.42,0,0,1,3.91,4.81l-3.72,38.43,14.78-28.73a3.48,3.48,0,0,1,4.05-1.75h0a3.47,3.47,0,0,1,2.28,4.62L210.9,229.2s6-5.06,11.95-9.66,11-4.13,9.19,1.38-6.43,8.28-11.49,15.17-7.82,16.09-12,23.45-18.53,9.93-18.53,9.93-15.95,28.23-17.33,29.15Z" style="fill: rgb(255, 255, 255); stroke: rgb(38, 50, 56); stroke-linecap: round; stroke-linejoin: round; transform-origin: 190.622px 235.307px 0px;" id="el4ovffe6ejru" class="animable"></path><line x1="165.44" y1="214.29" x2="207.81" y2="217.25" style="fill: none; stroke: rgb(38, 50, 56); stroke-linecap: round; stroke-linejoin: round; transform-origin: 186.625px 215.77px 0px;" id="elvym6uizpeb" class="animable"></line><path d="M178.58,264.21s-4.46-8.81,6.11-22.14,16.55-11.49,16.55-11.49" style="fill: rgb(255, 255, 255); stroke: rgb(38, 50, 56); stroke-linecap: round; stroke-linejoin: round; transform-origin: 189.443px 247.352px 0px;" id="elnqz3dihy58" class="animable"></path><polygon points="141.63 356.04 168.14 307.81 144.24 286.66 141.63 288.76 141.63 356.04" style="fill: rgb(255, 255, 255); transform-origin: 154.885px 321.35px 0px;" id="el129mpwait7qg" class="animable"></polygon><path d="M144,311.09a.55.55,0,0,0,.35-.12l7.47-6a.56.56,0,0,0-.7-.87l-7.46,6a.56.56,0,0,0-.09.78A.54.54,0,0,0,144,311.09Z" style="fill: rgb(178, 178, 178); transform-origin: 147.724px 307.546px 0px;" id="el99uiqrswf9u" class="animable"></path><path d="M157.49,319.77a.56.56,0,0,0-.72-.3.56.56,0,0,0-.3.73l2.1,5,.68-1.24Z" style="fill: rgb(178, 178, 178); transform-origin: 157.839px 322.315px 0px;" id="eldr3j51n2tee" class="animable"></path><polygon points="141.63 356.04 168.14 307.81 144.24 286.66 141.63 288.76 141.63 356.04" style="fill: none; stroke: rgb(38, 50, 56); stroke-linecap: round; stroke-linejoin: round; transform-origin: 154.885px 321.35px 0px;" id="elv8j70eq7guo" class="animable"></polygon><polygon points="148.37 276.09 141.63 285.9 141.63 293.41 168.6 314.25 183.31 294.02 148.37 276.09" style="fill: rgb(255, 255, 255); stroke: rgb(38, 50, 56); stroke-linecap: round; stroke-linejoin: round; transform-origin: 162.47px 295.17px 0px;" id="elridta9jnh6o" class="animable"></polygon><g id="el4tdafx8925m"><circle cx="198.99" cy="415.18" r="14.26" style="fill: rgb(255, 255, 255); stroke: rgb(38, 50, 56); stroke-linecap: round; stroke-linejoin: round; stroke-width: 0.724166px; transform-origin: 198.99px 415.18px 0px; transform: rotate(-5.67deg);" class="animable"></circle></g><path d="M199,418.71h0a2.88,2.88,0,0,1-2.88-2.88v-9.12a2.88,2.88,0,0,1,2.88-2.88h0a2.88,2.88,0,0,1,2.87,2.88v9.12A2.88,2.88,0,0,1,199,418.71Z" style="fill: rgb(38, 50, 56); transform-origin: 198.995px 411.27px 0px;" id="eljrae024h0b" class="animable"></path><path d="M199,420.78a5.1,5.1,0,0,1-5.09-5.09v-4.28a.53.53,0,0,1,.53-.53.52.52,0,0,1,.52.53v4.28a4,4,0,0,0,8.07,0v-4.28a.53.53,0,1,1,1.06,0v4.28A5.1,5.1,0,0,1,199,420.78Z" style="fill: rgb(38, 50, 56); transform-origin: 199px 415.829px 0px;" id="elazep4z2ed" class="animable"></path><path d="M199,426.25a.53.53,0,0,1-.53-.53v-5.47a.53.53,0,0,1,1.06,0v5.47A.53.53,0,0,1,199,426.25Z" style="fill: rgb(38, 50, 56); transform-origin: 199px 422.986px 0px;" id="elwyazstryxj" class="animable"></path><path d="M202.5,426.53h-7A.53.53,0,0,1,195,426a.52.52,0,0,1,.53-.52h7a.52.52,0,0,1,.52.52A.52.52,0,0,1,202.5,426.53Z" style="fill: rgb(38, 50, 56); transform-origin: 199.025px 426.005px 0px;" id="elw78qipmgr5" class="animable"></path><g id="el70gx0iu0u6a"><circle cx="293.4" cy="415.18" r="14.26" style="fill: rgb(255, 255, 255); stroke: rgb(38, 50, 56); stroke-linecap: round; stroke-linejoin: round; stroke-width: 0.724166px; transform-origin: 293.4px 415.18px 0px; transform: rotate(-13.37deg);" class="animable"></circle></g><path d="M302.19,411,298,413.41v-2a1.7,1.7,0,0,0-1.7-1.7h-9.41a1.7,1.7,0,0,0-1.7,1.7V419a1.7,1.7,0,0,0,1.7,1.7h9.41A1.7,1.7,0,0,0,298,419v-2l4.16,2.41Z" style="fill: rgb(38, 50, 56); transform-origin: 293.69px 415.205px 0px;" id="el5tqpqah5paw" class="animable"></path><g id="eljjz22h6kr8"><circle cx="246.19" cy="415.18" r="14.26" style="fill: rgb(38, 50, 56); stroke: rgb(38, 50, 56); stroke-linecap: round; stroke-linejoin: round; stroke-width: 0.724166px; transform-origin: 246.19px 415.18px 0px; transform: rotate(-13.37deg);" class="animable"></circle></g><path d="M253.41,412.17H239a2.72,2.72,0,0,0-2.68,3.22l.42,2.25a.67.67,0,0,0,.66.55h4.35a.67.67,0,0,0,.67-.67v-2.45H250v2.45a.67.67,0,0,0,.67.67H255a.67.67,0,0,0,.66-.55l.42-2.25A2.72,2.72,0,0,0,253.41,412.17Z" style="fill: rgb(60, 49, 180); transform-origin: 246.2px 415.18px 0px;" id="el3ducfd56iyi" class="animable"></path><path d="M363.9,173.84a1.46,1.46,0,0,0,1.47-1.46V133.05a1.46,1.46,0,0,0-1.47-1.46h-3.82V56.47A18.88,18.88,0,0,0,341.2,37.58H156.82a18.88,18.88,0,0,0-18.88,18.89V444.12A18.88,18.88,0,0,0,156.82,463H341.2a18.88,18.88,0,0,0,18.88-18.88V207.65h3.82a1.47,1.47,0,0,0,1.47-1.46v-17.5a1.46,1.46,0,0,0-1.47-1.46h-3.82V173.84ZM353.7,429.41a13.65,13.65,0,0,1-13.83,13.47H158.16a13.65,13.65,0,0,1-13.84-13.47V60.55a13.66,13.66,0,0,1,13.84-13.48h71.62l3,5.52a18.58,18.58,0,0,0,32.5,0l3-5.52h71.63A13.65,13.65,0,0,1,353.7,60.55Z" style="fill: rgb(38, 50, 56); stroke: rgb(38, 50, 56); stroke-linecap: round; stroke-linejoin: round; transform-origin: 251.655px 250.29px 0px;" id="elt75qfiravgo" class="animable"></path><path d="M253.94,49.18A4.93,4.93,0,1,0,249,54.11,4.93,4.93,0,0,0,253.94,49.18Z" style="fill: rgb(255, 255, 255); stroke: rgb(38, 50, 56); stroke-linecap: round; stroke-linejoin: round; transform-origin: 249.01px 49.18px 0px;" id="el3iynuyekgly" class="animable"></path></g><g id="freepik--Character--inject-53" style="transform-origin: 190.09px 123.925px 0px;" class="animable"><rect x="159.65" y="71.55" width="60.85" height="104.75" style="fill: rgb(255, 255, 255); stroke: rgb(255, 255, 255); stroke-linecap: round; stroke-linejoin: round; stroke-width: 3px; transform-origin: 190.075px 123.925px 0px;" id="elo9agff4ihz" class="animable"></rect><path d="M220.5,176.3v-32a8.7,8.7,0,0,0-1.71-1.72c-5.09-3.85-20.91-1.87-23.9-1.7s-7.4.16-7.4.16-8.8.31-16.2.62a14.79,14.79,0,0,0-11.2,6.35V176.3Z" style="fill: rgb(60, 49, 180); stroke: rgb(38, 50, 56); stroke-linecap: round; stroke-linejoin: round; transform-origin: 190.295px 158.26px 0px;" id="ely8ncxod2u79" class="animable"></path><path d="M181,141.08a9.76,9.76,0,0,0-8,8.48c-1.08,7.56,1.54,12.19,7.71,16.35A84.92,84.92,0,0,1,191,174.08s13.11-11.1,15.11-18.2-.92-13.26-4.16-14.34S181,141.08,181,141.08Z" style="fill: rgb(163, 163, 163); stroke: rgb(38, 50, 56); stroke-miterlimit: 10; transform-origin: 189.764px 157.491px 0px;" id="eluoual7h4tbs" class="animable"></path><polygon points="220.5 176.3 220.5 168.81 218.02 169.46 217.17 176.3 220.5 176.3" style="fill: rgb(163, 163, 163); stroke: rgb(38, 50, 56); stroke-miterlimit: 10; transform-origin: 218.835px 172.555px 0px;" id="elghmlrv2oges" class="animable"></polygon><polygon points="166.27 176.3 165.74 174.08 160.09 173.52 160.09 176.3 166.27 176.3" style="fill: rgb(163, 163, 163); stroke: rgb(38, 50, 56); stroke-miterlimit: 10; transform-origin: 163.18px 174.91px 0px;" id="eljxyj0dagsm" class="animable"></polygon><path d="M162.66,160.05l3.12,13.4" style="fill: none; stroke: rgb(38, 50, 56); stroke-miterlimit: 10; transform-origin: 164.22px 166.75px 0px;" id="elcbxfxtpgrbe" class="animable"></path><path d="M218,128c.54-.42,1.51-1,2.53-1.78V96.74c-1.14-1-2.94-1.58-3.35-2.86-.62-1.9,1.44-4.44,0-6.77s-7-.21-9.67-.85-3.29-1.9-4.31-4.23S198.23,80.76,197,81s3.08-4,.82-6.56-9.67-.21-10.49,2.33-3.91,0-4.73-2.12-6.78-4-6.78-.21a5.29,5.29,0,0,0,1.53,3.85c-1.95-1.23-5.08-2.76-7.09-1.52-3.08,1.9,1.65,4.44,1.65,4.44h-5.76a14.28,14.28,0,0,0-6.06,1.71v7.83h.1l-.1,0v48.4c2.2,0,3.8-.67,3.8.44,0,1.69.62,4.86,3.91,3.6s6-3.6,6-1.91,1.64,4.87,3.7,4,3.5-5.08,4.73-3.17,4.32,4.86,6.38,2.75,3.08-3.81,5.55-.64,5.55,3.81,6.37.64,2.68-1.69,5.76,0,7.61.84,7.61-2.33-1.65-5.92.41-6.35,6.17-1.69,5.14-3.81S216.33,129.22,218,128Z" style="fill: rgb(38, 50, 56); transform-origin: 190.31px 109.602px 0px;" id="elzhxdgzlksqj" class="animable"></path><path d="M217.36,174.06q.94-7.55,1.9-15.09" style="fill: none; stroke: rgb(38, 50, 56); stroke-miterlimit: 10; transform-origin: 218.31px 166.515px 0px;" id="eli4jvgq2gn1d" class="animable"></path><path d="M181.63,152.34s.46-8.18.46-11v-6.48l14.8-.93s.77,11.57,3.86,16.35" style="fill: rgb(163, 163, 163); stroke: rgb(38, 50, 56); stroke-miterlimit: 10; transform-origin: 191.19px 143.135px 0px;" id="el2e9hw0tqo2a" class="animable"></path><path d="M171.74,117.48s-3.15,3.45-3.15,4.63,2.17,4.33,3.84,4.82,2.26-.68,2.26-1.37S171.74,117.48,171.74,117.48Z" style="fill: rgb(163, 163, 163); stroke: rgb(38, 50, 56); stroke-linecap: round; stroke-linejoin: round; transform-origin: 171.64px 122.263px 0px;" id="elmgjoxu3u7qf" class="animable"></path><path d="M203.22,116.1s4.25,1.93,4.72,3-.29,4.83-1.64,5.94a1.56,1.56,0,0,1-2.62-.37C203.41,124.05,203.22,116.1,203.22,116.1Z" style="fill: rgb(163, 163, 163); stroke: rgb(38, 50, 56); stroke-miterlimit: 10; transform-origin: 205.65px 120.848px 0px;" id="elkhz1lvacb1s" class="animable"></path><path d="M176.53,98.07s-5.71,3.73-6.37,9,4,22.17,5.93,25,12.73,9.43,15.8,9,10.32-10.32,11.64-12.52.22-18.65-.88-25.68-8.78-8.56-16-8.56S176.53,98.07,176.53,98.07Z" style="fill: rgb(163, 163, 163); stroke: rgb(38, 50, 56); stroke-linecap: round; stroke-linejoin: round; transform-origin: 187.115px 117.7px 0px;" id="elgso8j1g10q" class="animable"></path><path d="M184.06,115.11c0,1-.51,1.86-1.15,1.86s-1.15-.84-1.15-1.86.52-1.87,1.15-1.87S184.06,114.08,184.06,115.11Z" style="fill: rgb(38, 50, 56); transform-origin: 182.91px 115.105px 0px;" id="elhwfukl4nx7b" class="animable"></path><path d="M196.38,113.68c0,1-.51,1.86-1.15,1.86s-1.15-.83-1.15-1.86.52-1.86,1.15-1.86S196.38,112.65,196.38,113.68Z" style="fill: rgb(38, 50, 56); transform-origin: 195.23px 113.68px 0px;" id="elq0xh6a4lt" class="animable"></path><path d="M191,111.85s-.47,5.64.79,6,2.35,3.13,0,4.07-3.45-.15-3.77-1.25" style="fill: none; stroke: rgb(38, 50, 56); stroke-linecap: round; stroke-linejoin: round; transform-origin: 190.597px 117.064px 0px;" id="el3mk5plwvb9f" class="animable"></path><line x1="179.68" y1="117.96" x2="183.91" y2="117.81" style="fill: none; stroke: rgb(38, 50, 56); stroke-linecap: round; stroke-linejoin: round; stroke-width: 0.5px; transform-origin: 181.795px 117.885px 0px;" id="elav96d3g9th" class="animable"></line><line x1="194.88" y1="116.55" x2="198.49" y2="114.83" style="fill: none; stroke: rgb(38, 50, 56); stroke-linecap: round; stroke-linejoin: round; stroke-width: 0.5px; transform-origin: 196.685px 115.69px 0px;" id="elutr8u1wy2b" class="animable"></line><path d="M174.55,96.32s3.73,1.09,2.42,2.85-3.95,4.61-2,5,2.42.88,1.1,1.31-3.73,2.42-.22,2.86,5-.44,6.15-3.51,1.09-2.2,3.73-.66,4.61-3.29,3.51-5-2.85-.44-2.63-3.07a7.71,7.71,0,0,1,1.53-4.17l3.29,2s-2.63,2.2-.65,4.17,4.39,2.42,2.85,2.86-3.73,3.07-.88,3.51,4.83-1.54,4.83-3.3-1.32-3.51,0-4.82l2.85-2.86S200,90,192.11,88.63s-14.26,2-15.58,3.3S174.55,96.32,174.55,96.32Z" style="fill: rgb(38, 50, 56); transform-origin: 187.229px 98.3773px 0px;" id="el0pzd57uk7ykr" class="animable"></path><path d="M182,126.12s3.28,4.47,5.22,5.55,5.81.67,7.57-.75,3.11-6.44,3.11-6.44a23.05,23.05,0,0,1-8.46,2.19A29.31,29.31,0,0,1,182,126.12Z" style="fill: rgb(166, 166, 166); stroke: rgb(38, 50, 56); stroke-miterlimit: 10; stroke-width: 0.5px; transform-origin: 189.95px 128.381px 0px;" id="elrjh1lt3e2ar" class="animable"></path><path d="M185.52,127.47a6,6,0,0,0,4.65,2.2,6.6,6.6,0,0,0,5.78-4.34l-12,1.14Z" style="fill: rgb(255, 255, 255); stroke: rgb(38, 50, 56); stroke-linecap: round; stroke-linejoin: round; transform-origin: 189.95px 127.5px 0px;" id="elghm0jwmhaj" class="animable"></path><path d="M198.23,123.82a5.61,5.61,0,0,1-3.16.92,21,21,0,0,0-4.39.75,7.68,7.68,0,0,0-3.65.14,18.9,18.9,0,0,1-5.57.07s2.61,1.78,8.93,1.31C197.62,126.48,198.23,123.82,198.23,123.82Z" style="fill: gray; stroke: rgb(38, 50, 56); stroke-miterlimit: 10; stroke-width: 0.5px; transform-origin: 189.845px 125.455px 0px;" id="el5igadad7j97" class="animable"></path><path d="M177.22,111.46a8.2,8.2,0,0,1,3.16-2.49c2.69-1.31,4.35-.66,4.35-.66" style="fill: none; stroke: rgb(38, 50, 56); stroke-linecap: round; stroke-miterlimit: 10; stroke-width: 2px; transform-origin: 180.975px 109.804px 0px;" id="elylqvaqx7tkq" class="animable"></path><path d="M191.75,106.51a6.87,6.87,0,0,1,5.31-.52,4.94,4.94,0,0,1,2.27,1.53" style="fill: none; stroke: rgb(38, 50, 56); stroke-linecap: round; stroke-miterlimit: 10; stroke-width: 2px; transform-origin: 195.54px 106.6px 0px;" id="el8gwagznya5x" class="animable"></path></g><g id="freepik--Floor--inject-53" style="transform-origin: 256.5px 463px 0px;" class="animable"><line x1="33" y1="463" x2="480" y2="463" style="fill: none; stroke: rgb(38, 50, 56); stroke-linecap: round; stroke-linejoin: round; transform-origin: 256.5px 463px 0px;" id="elzr5hlsaw2ip" class="animable"></line></g><defs>     <filter id="active" height="200%">         <feMorphology in="SourceAlpha" result="DILATED" operator="dilate" radius="2"></feMorphology>                <feFlood flood-color="#32DFEC" flood-opacity="1" result="PINK"></feFlood>        <feComposite in="PINK" in2="DILATED" operator="in" result="OUTLINE"></feComposite>        <feMerge>            <feMergeNode in="OUTLINE"></feMergeNode>            <feMergeNode in="SourceGraphic"></feMergeNode>        </feMerge>    </filter>    <filter id="hover" height="200%">        <feMorphology in="SourceAlpha" result="DILATED" operator="dilate" radius="2"></feMorphology>                <feFlood flood-color="#ff0000" flood-opacity="0.5" result="PINK"></feFlood>        <feComposite in="PINK" in2="DILATED" operator="in" result="OUTLINE"></feComposite>        <feMerge>            <feMergeNode in="OUTLINE"></feMergeNode>            <feMergeNode in="SourceGraphic"></feMergeNode>        </feMerge>            <feColorMatrix type="matrix" values="0   0   0   0   0                0   1   0   0   0                0   0   0   0   0                0   0   0   1   0 "></feColorMatrix>    </filter></defs></svg>